<mxfile host="app.diagrams.net" modified="2024-07-14T13:53:25.173Z" agent="Mozilla/5.0 (Windows NT 10.0; Win64; x64) AppleWebKit/537.36 (KHTML, like Gecko) Chrome/126.0.0.0 Safari/537.36" version="24.6.5" etag="_l2TqneYG6cX9qVpibY6" type="github">
  <diagram name="Halaman-1" id="gVA3h1dIFE1vtvpMvNQa">
    <mxGraphModel>
      <root>
        <mxCell id="0" />
        <mxCell id="1" parent="0" />
      </root>
    </mxGraphModel>
  </diagram>
</mxfile>
